@startuml
[*] --> S0

state S0{
    state S1{
        state S3{
        }
    }
    state S2{
    }
    [*] --> S1
}

S0 : <<entry>> / EntryS0
S0 : <<exit>> / ExitS0


S1 : <<entry>> / EntryS1
S1 : <<exit>> / ExitS1
S1 : E4 / A4
S1 : E8 / A8
S1 --> S3 : E2 / A2
S1 --> S1 : E6 / A6

S2 : <<entry>> / EntryS2
S2 : <<exit>> / ExitS2

S1 --> S2 : E0 / A0
S2 --> S1 : E1 / A1

S2 --> S2 : E7 / A7

S3 : <<entry>> / EntryS3
S3 : <<exit>> / ExitS3
S3 : E8 / A9
S3 --> S1 : E3 / A3

S0 --> [*] : E5 / A5
@enduml